<?xml version="1.0" encoding="utf-8"?>
<!-- Generator: Adobe Illustrator 25.0.0, SVG Export Plug-In . SVG Version: 6.00 Build 0)  -->
<svg version="1.1" id="Layer_1" xmlns="http://www.w3.org/2000/svg" xmlns:xlink="http://www.w3.org/1999/xlink" x="0px" y="0px"
	 viewBox="0 0 285.9 241.5" style="enable-background:new 0 0 285.9 241.5;" xml:space="preserve">
<style type="text/css">
	.default-st0{fill:#3C5261;}
	.default-st1{clip-path:url(#SVGID_2_);}
	.default-st2{fill:#E3BCA4;}
	.default-st3{fill:#D59C78;}
	.default-st4{fill:#C57847;}
	.default-st5{fill:#006680;}
	.default-st6{fill:#00AAD4;}
	.default-st7{fill:#7E5645;}
	.default-st8{fill:#502D16;}
	.default-st9{clip-path:url(#SVGID_4_);}
	.default-st10{fill:#ECAC70;}
	.default-st11{fill:#EF9948;}
	.default-st12{fill:#95A0A8;}
	.default-st13{fill:#567683;}
	.default-st14{fill:#FFFFFF;}
	.default-st15{fill:#C8B7B7;}
	.default-st16{fill:#917C6F;}
	.default-st17{fill:#BC4F2E;}
	.default-st18{fill:#A9462F;}
	.default-st19{fill:#953E29;}
	.default-st20{clip-path:url(#SVGID_6_);}
	.default-st21{fill:#773F2B;}
	.default-st22{fill:#925333;}
	.default-st23{fill:#608689;}
	.default-st24{fill:#516A75;}
	.default-st25{fill:#29291F;}
</style>
<g>
	<g>
		<path class="default-st0" d="M149.4,231c-45.1,0-81.8-36.7-81.8-81.8c0-45.1,36.7-81.8,81.8-81.8s81.8,36.7,81.8,81.8
			C231.2,194.3,194.5,231,149.4,231z M149.4,77.4c-39.6,0-71.8,32.2-71.8,71.8s32.2,71.8,71.8,71.8s71.8-32.2,71.8-71.8
			S189,77.4,149.4,77.4z"/>
	</g>
	<g>
		<defs>
			<path id="SVGID_1_" d="M225.9,153.3c0,0,0.8,39.2-37.9,62.2s-74.2,1.8-74.2,1.8S94.1,206.9,84.1,190H68.9L-17.8,85L124.8,0.1
				L225.9,153.3z"/>
		</defs>
		<clipPath id="SVGID_2_">
			<use xlink:href="#SVGID_1_"  style="overflow:visible;"/>
		</clipPath>
		<g class="default-st1">
			<g id="path4416_1_">
				<g>
					<path class="default-st2" d="M127.3,246.9L33.1,122.7l3.9-3c0,0-3.4-1.5-3.8-6.6c-0.4-5,6.1-11,5.6-15c-0.5-4-1.6-5.6-1.6-5.6
						l16.6-36.8l39.9-6.1c0,0,1.2,1.5,5,3c3.8,1.5,11.2-3.1,16-1.3c4.8,1.7,5.3,5.4,5.3,5.4l3.9-3l94.2,124.2L127.3,246.9z"/>
				</g>
			</g>
			<g id="path4743_1_">
				<g>
					<path class="default-st3" d="M130,247.3L35.9,123.1l3.8-2.9c0,0-3.3-1.6-3.8-6.6c-0.5-5,5.8-10.7,5.2-14.7c-0.5-4-1.6-5.6-1.6-5.6
						l15.6-36L93.9,52c0,0,1.2,1.5,4.9,3.1c3.7,1.6,10.9-2.8,15.6-1.1c4.7,1.8,5.3,5.4,5.3,5.4l3.8-2.9l94.2,124.2L130,247.3z"/>
				</g>
			</g>
			<g id="path4703_1_">
				<g>
					<path class="default-st4" d="M99.8,110.5l57.9,76.1l18.8-15.5l-58.5-74.9L99.8,110.5z"/>
				</g>
			</g>
			<g id="path4523_1_">
				<g>
					<path class="default-st5" d="M78.7,67.6l8.7,11l9.4-6.7L88,60.7L78.7,67.6z"/>
				</g>
				<g>
					<path class="default-st6" d="M98.1,72.1l-11,7.8l-9.8-12.4l10.9-8.2L98.1,72.1z M87.6,77.3l7.8-5.6L87.8,62l-7.8,5.8L87.6,77.3z"/>
				</g>
			</g>
			<g id="path4525_1_">
				<g>
					<path class="default-st5" d="M75.4,69.8l9.1,11.7l-8.1,6.3L66.3,77.4L75.4,69.8z"/>
				</g>
				<g>
					<path class="default-st6" d="M76.2,89L64.9,77.3l10.6-8.9l10.3,13.2L76.2,89z M67.7,77.4l8.8,9.1l6.6-5.2l-8-10.2L67.7,77.4z"/>
				</g>
			</g>
			<g id="path4527_1_">
				<g>
					<path class="default-st5" d="M63.8,80l8.5,10.8l-10.9,8l-7-12.3L63.8,80z"/>
				</g>
				<g>
					<path class="default-st6" d="M73.6,91L61,100.2L53,86.2l11-7.5L73.6,91z M61.6,97.4l9.2-6.7l-7.4-9.4l-7.9,5.5L61.6,97.4z"/>
				</g>
			</g>
			<g id="path4529_1_">
				<g>
					<path class="default-st5" d="M52.9,121.1l9.1,11.7l11.2-8.4l-9.1-11.7L52.9,121.1z"/>
				</g>
				<g>
					<path class="default-st6" d="M74.6,124.6l-12.7,9.5l-10.3-13.2l12.7-9.5L74.6,124.6z M62.3,131.5l9.6-7.2l-8-10.3l-9.6,7.2L62.3,131.5z
						"/>
				</g>
			</g>
			<g id="path4531_1_">
				<g>
					<path class="default-st5" d="M71.6,106.2l10.2,11.4l10.9-8.1L83.3,97L71.6,106.2z"/>
				</g>
				<g>
					<path class="default-st6" d="M94,109.6l-12.4,9.2l-11.4-12.7l13.3-10.4L94,109.6z M82,116.3l9.3-7l-8.3-10.9l-10,7.9L82,116.3z"/>
				</g>
			</g>
			<g id="path4533_1_">
				<g>
					<path class="default-st5" d="M91.4,91l9.6,11.8l10.6-8.5L102,81.6L91.4,91z"/>
				</g>
				<g>
					<path class="default-st6" d="M100.8,104.2L90.1,90.9l12.2-10.7l10.6,14.2L100.8,104.2z M92.7,91.1l8.5,10.4l9.1-7.3L101.9,83L92.7,91.1
						z"/>
				</g>
			</g>
			<g id="path4535_1_">
				<g>
					<path class="default-st5" d="M110.7,75.5l10,12.4l11-8l-11-12.5L110.7,75.5z"/>
				</g>
				<g>
					<path class="default-st6" d="M133.1,80l-12.6,9.1l-11.1-13.7l11.5-9.4L133.1,80z M120.9,86.6l9.3-6.8l-9.7-11.1l-8.5,6.9L120.9,86.6z"
						/>
				</g>
			</g>
			<g id="path4537_1_">
				<g>
					<path class="default-st5" d="M69.1,143.2L80,155.6l10.6-7.9l-9.9-12.9L69.1,143.2z"/>
				</g>
				<g>
					<path class="default-st6" d="M92,147.8l-12.1,9.1l-12.1-13.8l13.2-9.6L92,147.8z M80.2,154.3l9.1-6.8l-8.8-11.4l-9.9,7.2L80.2,154.3z"
						/>
				</g>
			</g>
			<g id="path4539_1_">
				<g>
					<path class="default-st5" d="M89.5,127.7l9.6,12.7l9.8-7.1l-9.4-13.1L89.5,127.7z"/>
				</g>
				<g>
					<path class="default-st6" d="M110.3,133.5L99,141.7l-10.8-14.2l11.6-8.7L110.3,133.5z M99.4,139.1l8.2-5.9l-8.4-11.6l-8.4,6.3
						L99.4,139.1z"/>
				</g>
			</g>
			<g id="path4541_1_">
				<g>
					<path class="default-st5" d="M105.9,115.9l8.9,12l17.3-12.8l-9.7-12.2L105.9,115.9z"/>
				</g>
				<g>
					<path class="default-st6" d="M133.5,115.3l-18.9,14l-10-13.5l18-14.1L133.5,115.3z M115.1,126.6l15.7-11.6l-8.6-10.7L107.3,116
						L115.1,126.6z"/>
				</g>
			</g>
			<g id="path4543_1_">
				<g>
					<path class="default-st5" d="M127.7,97.8l10.5,12.3l9.5-7.3L138.6,89L127.7,97.8z"/>
				</g>
				<g>
					<path class="default-st6" d="M138,111.4l-11.6-13.7l12.4-10.1L149,103L138,111.4z M129.1,97.9l9.3,10.9l8-6.2l-8.1-12.2L129.1,97.9z"/>
				</g>
			</g>
			<g id="path4545_1_">
				<g>
					<path class="default-st5" d="M87.7,166.3l10.1,14.1l11.2-8.1l-11.1-13.6L87.7,166.3z"/>
				</g>
				<g>
					<path class="default-st6" d="M110.4,172.4l-12.8,9.3l-11.2-15.6l11.7-8.7L110.4,172.4z M98.1,179.1l9.6-7l-10-12.1l-8.6,6.4L98.1,179.1
						z"/>
				</g>
			</g>
			<g id="path4547_1_">
				<g>
					<path class="default-st5" d="M106.6,150.7l11,15L130,156l-11.6-13.4L106.6,150.7z"/>
				</g>
				<g>
					<path class="default-st6" d="M117.3,167l-12.1-16.5l13.3-9.2l12.8,14.8L117.3,167z M108,150.9l9.8,13.4l10.8-8.4l-10.5-12L108,150.9z"
						/>
				</g>
			</g>
			<g id="path4549_1_">
				<g>
					<path class="default-st5" d="M123.4,138.6l10.4,14.1l17-13.1l-11.7-13.5L123.4,138.6z"/>
				</g>
				<g>
					<path class="default-st6" d="M133.6,154.1l-11.4-15.6l17.2-13.6l12.9,14.9L133.6,154.1z M124.8,138.7l9.3,12.7l15.4-11.9L139,127.4
						L124.8,138.7z"/>
				</g>
			</g>
			<g id="path4551_1_">
				<g>
					<path class="default-st5" d="M146.1,121.3l11,13.2l10.6-7.7L156.5,113L146.1,121.3z"/>
				</g>
				<g>
					<path class="default-st6" d="M169.1,126.9l-12.2,8.8l-12.2-14.6l11.9-9.5L169.1,126.9z M157.4,133.2l9-6.5l-10-12.4l-8.8,7.1
						L157.4,133.2z"/>
				</g>
			</g>
			<g id="path4553_1_">
				<g>
					<path class="default-st5" d="M106.9,191.2l9.5,13.4l11.4-9.1l-10.1-12L106.9,191.2z"/>
				</g>
				<g>
					<path class="default-st6" d="M116.2,206L105.6,191l12.4-8.9l11.3,13.4L116.2,206z M108.2,191.4l8.4,11.8l9.8-7.9l-8.9-10.6L108.2,191.4
						z"/>
				</g>
			</g>
			<g id="path4555_1_">
				<g>
					<path class="default-st5" d="M126.3,176l10.4,13.5l10.3-8.4l-10.2-12.8L126.3,176z"/>
				</g>
				<g>
					<path class="default-st6" d="M136.5,190.9l-11.6-15.1L137,167l11.3,14.2L136.5,190.9z M127.6,176.1l9.2,12l8.7-7.1l-9.1-11.4
						L127.6,176.1z"/>
				</g>
			</g>
			<g id="path4557_1_">
				<g>
					<path class="default-st5" d="M144,161.7l9.9,13.8l15.3-11l-11.4-13.2L144,161.7z"/>
				</g>
				<g>
					<path class="default-st6" d="M170.7,164.6l-17,12.2l-11-15.2l15.4-11.6L170.7,164.6z M154.2,174.1l13.6-9.8l-10.2-11.8l-12.3,9.4
						L154.2,174.1z"/>
				</g>
			</g>
			<g id="path4559_1_">
				<g>
					<path class="default-st5" d="M164.7,146.2l10.5,13.6l11.2-9.1l-10.7-13.1L164.7,146.2z"/>
				</g>
				<g>
					<path class="default-st6" d="M175,161.2l-11.6-15.1l12.5-9.8l11.8,14.5L175,161.2z M166,146.4l9.3,12.1l9.7-7.8l-9.5-11.7L166,146.4z"
						/>
				</g>
			</g>
			<g id="path4561_1_">
				<g>
					<path class="default-st5" d="M59,83.4l7.6,10.9"/>
				</g>
				<g>
					<polygon class="default-st6" points="68,94.5 66.4,95.6 57.7,83.2 59.3,82.1 					"/>
				</g>
			</g>
			<g id="path4563_1_">
				<g>
					<path class="default-st5" d="M70.9,73.7l9.1,11.1"/>
				</g>
				<g>
					<polygon class="default-st6" points="79.9,86.1 69.6,73.6 71.1,72.4 81.4,84.9 					"/>
				</g>
			</g>
			<g id="path4565_1_">
				<g>
					<path class="default-st5" d="M83.5,64.1l8.1,10.9"/>
				</g>
				<g>

						<rect x="86.6" y="61.9" transform="matrix(0.8006 -0.5992 0.5992 0.8006 -24.2343 66.3723)" class="default-st6" width="2" height="15.5"/>
				</g>
			</g>
			<g id="path4567_1_">
				<g>
					<path class="default-st5" d="M58.6,117.2l8.6,11.6"/>
				</g>
				<g>

						<rect x="61.9" y="114.8" transform="matrix(0.8005 -0.5994 0.5994 0.8005 -61.1423 62.2216)" class="default-st6" width="2" height="16.3"/>
				</g>
			</g>
			<g id="path4569_1_">
				<g>
					<path class="default-st5" d="M78.1,101.5l9,12"/>
				</g>
				<g>

						<rect x="81.6" y="99.1" transform="matrix(0.8003 -0.5996 0.5996 0.8003 -47.989 70.9781)" class="default-st6" width="2" height="16.8"/>
				</g>
			</g>
			<g id="path4571_1_">
				<g>
					<path class="default-st5" d="M97.3,86l8.8,12.5"/>
				</g>
				<g>
					<polygon class="default-st6" points="107.4,98.7 105.8,99.9 96,85.8 97.6,84.7 					"/>
				</g>
			</g>
			<g id="path4573_1_">
				<g>
					<path class="default-st5" d="M116,71.5l10,12.3"/>
				</g>
				<g>
					<polygon class="default-st6" points="125.9,85.1 114.7,71.4 116.2,70.1 127.4,83.8 					"/>
				</g>
			</g>
			<g id="path4575_1_">
				<g>
					<path class="default-st5" d="M133.2,93.8l9.8,12.5"/>
				</g>
				<g>
					<polygon class="default-st6" points="142.8,107.6 131.9,93.7 133.4,92.5 144.3,106.4 					"/>
				</g>
			</g>
			<g id="path4577_1_">
				<g>
					<path class="default-st5" d="M116.9,107.6l9.1,11.8"/>
				</g>
				<g>
					<polygon class="default-st6" points="125.8,120.7 115.5,107.5 117.1,106.3 127.3,119.5 					"/>
				</g>
			</g>
			<g id="path4579_1_">
				<g>
					<path class="default-st5" d="M110.7,112.4l8.6,11.9"/>
				</g>
				<g>
					<polygon class="default-st6" points="120.6,124.4 119,125.6 109.4,112.2 110.9,111 					"/>
				</g>
			</g>
			<g id="path4581_1_">
				<g>
					<path class="default-st5" d="M95,123.9l9.1,12.7"/>
				</g>
				<g>
					<polygon class="default-st6" points="105.4,136.8 103.8,137.9 93.7,123.7 95.3,122.6 					"/>
				</g>
			</g>
			<g id="path4583_1_">
				<g>
					<path class="default-st5" d="M74.9,139.3l9.8,12.7"/>
				</g>
				<g>

						<rect x="78.8" y="136.7" transform="matrix(0.793 -0.6092 0.6092 0.793 -72.2277 78.7207)" class="default-st6" width="2" height="17.9"/>
				</g>
			</g>
			<g id="path4585_1_">
				<g>
					<path class="default-st5" d="M92.4,163.2l10.5,13.1"/>
				</g>
				<g>
					<polygon class="default-st6" points="102.7,177.7 91,163.1 92.6,161.9 104.2,176.4 					"/>
				</g>
			</g>
			<g id="path4587_1_">
				<g>
					<path class="default-st5" d="M112.8,146.7l10.6,14.1"/>
				</g>
				<g>

						<rect x="117.1" y="144.1" transform="matrix(0.7997 -0.6004 0.6004 0.7997 -68.6855 101.6895)" class="default-st6" width="2" height="19.5"/>
				</g>
			</g>
			<g id="path4589_1_">
				<g>
					<path class="default-st5" d="M134.9,130.1l10.6,13.2"/>
				</g>
				<g>
					<polygon class="default-st6" points="145.3,144.6 133.6,130 135.1,128.7 146.9,143.4 					"/>
				</g>
			</g>
			<g id="path4591_1_">
				<g>
					<path class="default-st5" d="M127.3,136l10.9,13.3"/>
				</g>
				<g>
					<polygon class="default-st6" points="138,150.6 125.9,135.9 127.5,134.6 139.5,149.3 					"/>
				</g>
			</g>
			<g id="path4593_1_">
				<g>
					<path class="default-st5" d="M151.9,117l10.3,13.3"/>
				</g>
				<g>
					<polygon class="default-st6" points="162,131.7 150.6,116.9 152.2,115.7 163.6,130.5 					"/>
				</g>
			</g>
			<g id="path4595_1_">
				<g>
					<path class="default-st5" d="M112.5,187.5l9.1,12.5"/>
				</g>
				<g>
					<polygon class="default-st6" points="122.9,200.2 121.4,201.4 111.2,187.4 112.8,186.2 					"/>
				</g>
			</g>
			<g id="path4597_1_">
				<g>
					<path class="default-st5" d="M132,172.4l9.5,12.9"/>
				</g>
				<g>
					<polygon class="default-st6" points="142.8,185.5 141.2,186.6 130.6,172.2 132.2,171 					"/>
				</g>
			</g>
			<g id="path4599_1_">
				<g>
					<path class="default-st5" d="M146.8,159.9l10,13.1"/>
				</g>
				<g>

						<rect x="150.8" y="157.3" transform="matrix(0.795 -0.6067 0.6067 0.795 -69.8256 126.228)" class="default-st6" width="2" height="18.3"/>
				</g>
			</g>
			<g id="path4601_1_">
				<g>
					<path class="default-st5" d="M153.9,154.6l9.6,13.4"/>
				</g>
				<g>
					<polygon class="default-st6" points="164.8,168.2 163.2,169.4 152.5,154.4 154.1,153.3 					"/>
				</g>
			</g>
			<g id="path4603_1_">
				<g>
					<path class="default-st5" d="M170.7,142l9.9,13.1"/>
				</g>
				<g>

						<rect x="174.7" y="139.4" transform="matrix(0.7984 -0.6021 0.6021 0.7984 -54.0212 135.7095)" class="default-st6" width="2" height="18.2"/>
				</g>
			</g>
			<g id="path4650_1_">
				<g>
					<path class="default-st7" d="M98.6,112.2l7.5-13.5l14.7-3.9L98.6,112.2z"/>
				</g>
			</g>
			<g id="path4693_1_">
				<g>
					<path class="default-st4" d="M198.9,152.3l-89.6,70.9l18,23.7l91-69L198.9,152.3z"/>
				</g>
			</g>
			<g id="path4707_1_">
				<g>
					<path class="default-st8" d="M189.9,169.2c-8.1,6.1-4.4,12.5-4.4,12.5l10.3,13.2l19.1-14.5l-10.7-13.5c0,0-4.3-4.6-13.5,1.7
						C190.5,168.8,190.2,169,189.9,169.2L189.9,169.2z M171.1,187.8c-8.2,6.1,1.6,18.6,4.7,22.3l14.9-11.3
						C187.7,194,179,181.9,171.1,187.8z M135.2,215.9c-0.2,0.1-0.3,0.2-0.5,0.4c-8.8,7.1,0.7,17.9,4.4,21.5l17.2-13.1
						C153.2,220.5,143.9,209.7,135.2,215.9L135.2,215.9z M154.7,201.2c-7.5,5.9,0.5,17,4.4,21.6l14.7-11.1
						C170.7,206.9,162.4,195.1,154.7,201.2z"/>
				</g>
			</g>
		</g>
	</g>
	<g>
		<defs>
			<path id="SVGID_3_" d="M109.8,215.1c0,0,35.6,24.1,77.3,0.8c11.8-6,23.2-19.9,23.2-19.9V17.6V-8.1H102.2v215.9
				C102.2,207.8,103.6,212.2,109.8,215.1z"/>
		</defs>
		<clipPath id="SVGID_4_">
			<use xlink:href="#SVGID_3_"  style="overflow:visible;"/>
		</clipPath>
		<g class="default-st9">
			<g id="rect4484_1_">
				<g>
					<rect x="118.4" y="66.7" class="default-st10" width="66.4" height="160.2"/>
				</g>
			</g>
			<g id="path4301_1_">
				<g>
					<path class="default-st11" d="M141.8,66.7l1.5,160.2h23.1l-2-160.2H141.8z"/>
				</g>
			</g>
			<g id="path4297_1_">
				<g>
					<path class="default-st12" d="M124.9,229.9l0.2-31.8l22.2,0.4l0.6,32.2L124.9,229.9z"/>
				</g>
			</g>
			<g id="path4299_1_">
				<g>
					<path class="default-st0" d="M153.6,230.5l-0.2-32l23.1,0.4l-1.5,32.2L153.6,230.5z"/>
				</g>
			</g>
			<g id="path4269_1_">
				<g>
					<path class="default-st13" d="M127.2,84.7l-0.1,18.3l10.9-0.1l-0.1-18.3L127.2,84.7z"/>
				</g>
				<g>
					<path class="default-st14" d="M126.5,103.5l0.1-19.4l11.8-0.2l0.1,19.4L126.5,103.5z M127.8,85.2l-0.1,17.1l9.7-0.1l-0.1-17.1
						L127.8,85.2z"/>
				</g>
			</g>
			<g id="path4271_1_">
				<g>
					<path class="default-st13" d="M132.2,84.5l0.4,18.1"/>
				</g>
				<g>

						<rect x="131.9" y="84.5" transform="matrix(0.9997 -2.254772e-02 2.254772e-02 0.9997 -2.077 3.0099)" class="default-st14" width="1.1" height="18.1"/>
				</g>
			</g>
			<g id="path4273_1_">
				<g>
					<path class="default-st13" d="M167.2,84.1l0.1,18l11.2,0.4L178,83.7L167.2,84.1z"/>
				</g>
				<g>
					<path class="default-st14" d="M179.1,103.1l-12.3-0.5l-0.1-19.1l11.9-0.5L179.1,103.1z M167.9,101.6l10,0.4l-0.5-17.6l-9.6,0.4
						L167.9,101.6z"/>
				</g>
			</g>
			<g id="path4275_1_">
				<g>
					<path class="default-st13" d="M173,84.1l-0.1,17.7"/>
				</g>
				<g>

						<rect x="164" y="92.4" transform="matrix(7.812262e-03 -1 1 7.812262e-03 78.5567 265.1632)" class="default-st14" width="17.7" height="1.1"/>
				</g>
			</g>
			<g id="path4277_1_">
				<g>
					<path class="default-st13" d="M146.8,83.5v25.3l14.3,0.1l0.1-25.2L146.8,83.5z"/>
				</g>
				<g>
					<path class="default-st14" d="M161.7,109.5l-15.4-0.1V82.9l15.6,0.3L161.7,109.5z M147.4,108.2l13.2,0.1l0.1-24.1L147.4,84V108.2z"/>
				</g>
			</g>
			<g id="path4279_1_">
				<g>
					<path class="default-st13" d="M146.8,87.3l14,0.3"/>
				</g>
				<g>

						<rect x="153.3" y="80.4" transform="matrix(1.941549e-02 -0.9998 0.9998 1.941549e-02 63.4463 239.509)" class="default-st14" width="1.1" height="14"/>
				</g>
			</g>
			<g id="path4281_1_">
				<g>
					<path class="default-st13" d="M153.9,87.4v21"/>
				</g>
				<g>
					<rect x="153.3" y="87.4" class="default-st14" width="1.1" height="21"/>
				</g>
			</g>
			<g id="path4283_1_">
				<g>
					<path class="default-st13" d="M126.6,113.4l11.7,0.5l0.5,17.3l-12.8,0.1L126.6,113.4z"/>
				</g>
				<g>
					<path class="default-st14" d="M125.5,132l0.6-19.2l12.8,0.6l0.6,18.4L125.5,132z M127.2,114l-0.5,16.8l11.6-0.1l-0.5-16.2L127.2,114z"
						/>
				</g>
			</g>
			<g id="path4285_1_">
				<g>
					<path class="default-st13" d="M132.6,113.7l0.1,17.4"/>
				</g>
				<g>

						<rect x="132.1" y="113.7" transform="matrix(1 -7.818270e-03 7.818270e-03 1 -0.9531 1.0413)" class="default-st14" width="1.1" height="17.4"/>
				</g>
			</g>
			<g id="path4287_1_">
				<g>
					<path class="default-st13" d="M167.8,113.6l-0.7,17.2l12.9-0.3l-0.8-17.2L167.8,113.6z"/>
				</g>
				<g>
					<path class="default-st14" d="M166.5,131.3l0.7-18.3l12.5-0.3l0.9,18.3L166.5,131.3z M168.3,114.1l-0.6,16l11.7-0.2l-0.8-16
						L168.3,114.1z"/>
				</g>
			</g>
			<g id="path4289_1_">
				<g>
					<path class="default-st13" d="M173.1,113.7l0.4,16.6"/>
				</g>
				<g>

						<rect x="172.7" y="113.7" transform="matrix(0.9997 -2.457961e-02 2.457961e-02 0.9997 -2.9467 4.2967)" class="default-st14" width="1.1" height="16.6"/>
				</g>
			</g>
			<g id="path4291_1_">
				<g>
					<path class="default-st13" d="M147.6,113.4l12.7,0.3l0.3,17.3l-14.4,0.3L147.6,113.4z"/>
				</g>
				<g>
					<path class="default-st14" d="M145.5,131.9l1.6-19l13.8,0.3l0.3,18.4L145.5,131.9z M148.2,114l-1.4,16.7l13.2-0.2l-0.3-16.2L148.2,114z
						"/>
				</g>
			</g>
			<g id="path4293_1_">
				<g>
					<path class="default-st13" d="M153.9,113.7L154,131"/>
				</g>
				<g>

						<rect x="153.4" y="113.7" transform="matrix(1 -7.858346e-03 7.858346e-03 1 -0.9568 1.2137)" class="default-st14" width="1.1" height="17.3"/>
				</g>
			</g>
			<g id="path4306_1_">
				<g>
					<path class="default-st13" d="M147.4,136.9h12.3l0.4,18.5l-13.3-0.6L147.4,136.9z"/>
				</g>
				<g>
					<path class="default-st14" d="M160.7,155.9l-14.5-0.6l0.6-19h13.4L160.7,155.9z M147.5,154.2l12.1,0.5l-0.4-17.3H148L147.5,154.2z"/>
				</g>
			</g>
			<g id="path4308_1_">
				<g>
					<path class="default-st13" d="M153.8,137l-0.6,17.7"/>
				</g>
				<g>

						<rect x="144.6" y="145.3" transform="matrix(3.255602e-02 -0.9995 0.9995 3.255602e-02 2.6801 294.5895)" class="default-st14" width="17.7" height="1.1"/>
				</g>
			</g>
			<g id="path4310_1_">
				<g>
					<path class="default-st13" d="M147.1,162.3l-0.4,21.4l14.8-0.4l-1-21.6L147.1,162.3z"/>
				</g>
				<g>
					<path class="default-st14" d="M146.1,184.3l0.4-22.5l14.6-0.6l1,22.7L146.1,184.3z M147.6,162.8l-0.4,20.3l13.7-0.4l-0.9-20.4
						L147.6,162.8z"/>
				</g>
			</g>
			<g id="path4312_1_">
				<g>
					<path class="default-st13" d="M153.6,162.1l0.4,21.2"/>
				</g>
				<g>

						<rect x="153.2" y="162.1" transform="matrix(0.9998 -1.817179e-02 1.817179e-02 0.9998 -3.1127 2.8233)" class="default-st14" width="1.1" height="21.2"/>
				</g>
			</g>
			<g id="path4314_1_">
				<g>
					<path class="default-st13" d="M169.2,137.4l0.4,17l10.4-0.2V137L169.2,137.4z"/>
				</g>
				<g>
					<path class="default-st14" d="M169,155l-0.4-18.1l11.9-0.4v18.3L169,155z M169.8,138l0.4,15.8l9.3-0.2v-16L169.8,138z"/>
				</g>
			</g>
			<g id="path4316_1_">
				<g>
					<path class="default-st13" d="M174.4,137.4L175,154"/>
				</g>
				<g>

						<rect x="174.1" y="137.4" transform="matrix(0.9994 -3.487087e-02 3.487087e-02 0.9994 -4.9751 6.1807)" class="default-st14" width="1.1" height="16.6"/>
				</g>
			</g>
			<g id="path4318_1_">
				<g>
					<path class="default-st13" d="M170.2,162.3l-1.2,20.8h11.2l0.2-21L170.2,162.3z"/>
				</g>
				<g>
					<path class="default-st14" d="M180.8,183.7h-12.3l1.2-21.9l11.3-0.2L180.8,183.7z M169.6,182.5h10l0.2-19.8l-9.1,0.2L169.6,182.5z"/>
				</g>
			</g>
			<g id="path4320_1_">
				<g>
					<path class="default-st13" d="M175.2,162.3l-0.6,20.6"/>
				</g>
				<g>

						<rect x="164.6" y="172" transform="matrix(2.800204e-02 -0.9996 0.9996 2.800204e-02 -2.528 342.5919)" class="default-st14" width="20.6" height="1.1"/>
				</g>
			</g>
			<g id="path4322_1_">
				<g>
					<path class="default-st13" d="M125.3,138.2V155l13.3,0.4l-0.6-17.9L125.3,138.2z"/>
				</g>
				<g>
					<path class="default-st14" d="M139.2,155.9l-14.5-0.4v-17.9l13.8-0.8L139.2,155.9z M125.9,154.4l12.1,0.4l-0.5-16.7l-11.6,0.7V154.4z"
						/>
				</g>
			</g>
			<g id="path4324_1_">
				<g>
					<path class="default-st13" d="M131.4,138v17.1"/>
				</g>
				<g>
					<rect x="130.9" y="138" class="default-st14" width="1.1" height="17.1"/>
				</g>
			</g>
			<g id="path4326_1_">
				<g>
					<path class="default-st13" d="M138.8,162.9l-0.2,20l-12.7,0.4l-0.2-20.6L138.8,162.9z"/>
				</g>
				<g>
					<path class="default-st14" d="M125.3,183.9l-0.2-21.8l14.3,0.2l-0.2,21.2L125.3,183.9z M126.2,163.3l0.2,19.4l11.6-0.4l0.2-18.9
						L126.2,163.3z"/>
				</g>
			</g>
			<g id="path4328_1_">
				<g>
					<path class="default-st13" d="M132.2,162.9l-0.2,20.2"/>
				</g>
				<g>

						<rect x="122" y="172.4" transform="matrix(9.765159e-03 -1 1 9.765159e-03 -42.1392 303.4099)" class="default-st14" width="20.2" height="1.1"/>
				</g>
			</g>
			<g id="path4394_1_">
				<g>
					<path class="default-st15" d="M177.7,24.7c0,0,0.6-15.7,0.6-15.9c0-0.3,2.5-3.7,2.5-3.7l3.3,3.6L184,24.3L177.7,24.7z"/>
				</g>
				<g>
					<path class="default-st16" d="M177.1,25.3l0-0.6c0.2-5.4,0.6-15.6,0.6-15.9c0-0.2,0-0.5,2.6-4.1l0.4-0.6l4,4.3l-0.1,16.4L177.1,25.3z
						 M178.9,8.8c0,1.2-0.5,12.2-0.6,15.2l5.2-0.3l0.1-14.9l-2.7-2.9C179.9,7.2,179,8.5,178.9,8.8z M178.8,8.9L178.8,8.9L178.8,8.9z
						 M178.9,8.7C178.9,8.7,178.9,8.7,178.9,8.7C178.9,8.7,178.9,8.7,178.9,8.7z"/>
				</g>
			</g>
			<g id="path4392_1_">
				<g>
					<path class="default-st17" d="M121.1,68.7l13.6-46.2l49.2-0.4l-2.6,47L121.1,68.7z"/>
				</g>
			</g>
			<g id="path4335_1_">
				<g>
					<path class="default-st12" d="M118.4,66.7v8.2l66.4-0.1v-8.1H118.4z"/>
				</g>
			</g>
			<g id="path4375_1_">
				<g>
					<path class="default-st18" d="M127.2,46.9l55-0.4"/>
				</g>
				<g>

						<rect x="127.2" y="45.8" transform="matrix(1 -7.421670e-03 7.421670e-03 1 -0.3426 1.1495)" class="default-st19" width="55" height="1.9"/>
				</g>
			</g>
			<g id="path4375-0_1_">
				<g>
					<path class="default-st18" d="M133.6,22.9l51.9-0.4"/>
				</g>
				<g>

						<rect x="133.6" y="21.8" transform="matrix(1 -8.036710e-03 8.036710e-03 1 -0.1772 1.283)" class="default-st19" width="51.9" height="1.9"/>
				</g>
			</g>
			<g id="path4367_1_">
				<g>
					<path class="default-st18" d="M183.9,67.7l2.9-47.4l-4.8-0.1l-2,47.8L183.9,67.7z"/>
				</g>
			</g>
			<g id="path4369_1_">
				<g>
					<path class="default-st18" d="M119.2,67.1l13.8-47.5l4.6,0.1l-14.3,47.8L119.2,67.1z"/>
				</g>
			</g>
			<g id="path4330_1_">
				<g>
					<path class="default-st0" d="M118.4,66.7v6.6l66.4-1v-5.6H118.4z"/>
				</g>
			</g>
		</g>
	</g>
	<g>
		<defs>
			<path id="SVGID_5_" d="M127,222.8c0,0,22.9,8.2,46.1-0.7c23.3-8.1,32.1-20.4,32.1-20.4s14.7-15.5,18-31.2c1-4.5,1.7-5.3,1.7-5.3
				l2.8-1.3l37.1-98.2l-88-28.4L127,222.8z"/>
		</defs>
		<clipPath id="SVGID_6_">
			<use xlink:href="#SVGID_5_"  style="overflow:visible;"/>
		</clipPath>
		<g class="default-st20">
			<g id="path4819_1_">
				<path class="default-st21" d="M187.7,50.1l66.1,21.5l-12,34.9l-65.3-21L187.7,50.1z"/>
			</g>
			<g id="path4815_1_">
				<path class="default-st22" d="M246.9,105l8.7-34.8l-3-0.8L242,103.9L246.9,105z"/>
			</g>
			<g id="path4817_1_">
				<path class="default-st22" d="M174.6,82.7l12.6-33.9l2.3,0.9l-10.8,34.7L174.6,82.7z"/>
			</g>
			<g id="rect4506_1_">

					<rect x="111.8" y="127.4" transform="matrix(0.3043 -0.9526 0.9526 0.3043 -26.4036 292.1638)" class="default-st23" width="150" height="73.5"/>
			</g>
			<g id="path4713_1_">
				<path class="default-st24" d="M181,96.3l-5.5,15.5l13.8,3.6l4.7-15.7L181,96.3z"/>
				<path class="default-st14" d="M190.3,117.2l-16.8-4.4l6.5-18.3l15.9,4.1L190.3,117.2z M177.5,110.7l10.8,2.8l3.9-12.8l-10.2-2.7
					L177.5,110.7z"/>
			</g>
			<g id="path4715_1_">
				<path class="default-st24" d="M203.8,102.6l-6.1,16.1l15.3,5.1l6-16.3L203.8,102.6z"/>
				<path class="default-st14" d="M213.9,125.6l-18.2-6l7.2-18.9l18,5.8L213.9,125.6z M199.6,117.7l12.4,4.1l5-13.5l-12.3-3.9L199.6,117.7z"
					/>
			</g>
			<g id="path4717_1_">
				<path class="default-st24" d="M225.4,109.5l-6.9,16.6l12.8,4.6l5.5-17.1L225.4,109.5z"/>
				<path class="default-st14" d="M232.3,132.7l-15.7-5.7l8-19.4l14.1,5.2L232.3,132.7z M220.5,125.2l9.8,3.6l4.5-14.2l-8.7-3.2L220.5,125.2
					z"/>
			</g>
			<g id="path4719_1_">
				<path class="default-st24" d="M187,97.8l-4.8,15.6"/>

					<rect x="176.4" y="104.1" transform="matrix(0.2936 -0.9559 0.9559 0.2936 29.4932 251.043)" class="default-st14" width="16.3" height="3"/>
			</g>
			<g id="path4721_1_">
				<path class="default-st24" d="M210.9,104.8l-4.4,16.3"/>

					<rect x="200.3" y="111.5" transform="matrix(0.2627 -0.9649 0.9649 0.2627 44.8508 284.6651)" class="default-st14" width="16.9" height="3"/>
			</g>
			<g id="path4723_1_">
				<path class="default-st24" d="M230.9,111.6l-5.7,16.8"/>

					<rect x="219.1" y="118.5" transform="matrix(0.3239 -0.9461 0.9461 0.3239 40.631 296.8302)" class="default-st14" width="17.7" height="3"/>
			</g>
			<g id="path4725_1_">
				<path class="default-st24" d="M172.8,120L168,135l14.3,4.6l5-16.1L172.8,120z"/>
				<path class="default-st14" d="M183.3,141.5l-17.2-5.5l5.7-17.8l17.4,4.2L183.3,141.5z M169.9,134l11.4,3.7l4-13.1l-11.6-2.8L169.9,134z"
					/>
			</g>
			<g id="path4727_1_">
				<path class="default-st24" d="M195.4,126.8l-5.3,15.8l15.2,4.7l5.9-16L195.4,126.8z"/>
				<path class="default-st14" d="M206.3,149.2l-18.1-5.6l6.2-18.7l18.8,5.4L206.3,149.2z M192.1,141.7l12.4,3.8l4.8-13.2l-12.9-3.7
					L192.1,141.7z"/>
			</g>
			<g id="path4729_1_">
				<path class="default-st24" d="M216.4,132.2l-5.9,17.8l12.5,4.2l5.6-18.1L216.4,132.2z"/>
				<path class="default-st14" d="M224,156.2l-15.4-5.1l6.8-20.7l15.1,4.8L224,156.2z M212.4,149.1l9.6,3.2l4.7-15.2l-9.4-3L212.4,149.1z"/>
			</g>
			<g id="path4731_1_">
				<path class="default-st24" d="M166.2,143.7l-5.7,16.8l13.4,4.3l6-17.1L166.2,143.7z"/>
				<path class="default-st14" d="M174.8,166.6l-16.3-5.2l6.7-19.6l16.6,4.9L174.8,166.6z M162.3,159.5l10.6,3.4l5-14.2l-10.8-3.2
					L162.3,159.5z"/>
			</g>
			<g id="path4733_1_">
				<path class="default-st24" d="M188.6,150.1l-6.1,17.2l15.7,5.2l5.2-18.1L188.6,150.1z"/>
				<path class="default-st14" d="M199.2,174.4l-18.6-6.2l7.1-20l17.6,5.2L199.2,174.4z M184.4,166.4l12.7,4.2l4.4-15.1l-12-3.5L184.4,166.4
					z"/>
			</g>
			<g id="path4735_1_">
				<path class="default-st24" d="M209.2,156.5l-6.5,18.4l13.3,4.1l5.9-18.6L209.2,156.5z"/>
				<path class="default-st14" d="M217.1,180.8l-16.2-5l7.5-21.2l15.6,4.8L217.1,180.8z M204.7,173.9l10.4,3.2l5-15.7l-10-3L204.7,173.9z"/>
			</g>
			<g id="path4737_1_">
				<path class="default-st24" d="M157.2,168.8l-5.5,16.1l14.3,4.6l5.5-17.1L157.2,168.8z"/>
				<path class="default-st14" d="M166.9,191.4l-17.2-5.5l6.5-18.9l17.1,4.4L166.9,191.4z M153.6,184l11.4,3.7l4.5-14.1l-11.4-2.9L153.6,184
					z"/>
			</g>
			<g id="path4739_1_">
				<path class="default-st24" d="M180.4,175.1l-5.7,16.8l15,4.8l5.6-17.4L180.4,175.1z"/>
				<path class="default-st14" d="M190.6,198.6l-17.9-5.7l6.7-19.6l17.7,5L190.6,198.6z M176.5,191l12.1,3.9l4.6-14.5l-12-3.4L176.5,191z"/>
			</g>
			<g id="path4741_1_">
				<path class="default-st24" d="M200.7,180.7l-5.5,18l13.8,4.4l5.5-17.8L200.7,180.7z"/>
				<path class="default-st14" d="M210,205l-16.7-5.3l6.4-20.8l16.6,5.5L210,205z M197,197.7l10.9,3.5l4.6-14.9l-10.9-3.6L197,197.7z"/>
			</g>
			<g id="path4744_1_">
				<path class="default-st24" d="M207.5,183l-5.6,17.4"/>

					<rect x="195.6" y="190.2" transform="matrix(0.3044 -0.9525 0.9525 0.3044 -40.2612 328.3633)" class="default-st14" width="18.3" height="3"/>
			</g>
			<g id="path4746_1_">
				<path class="default-st24" d="M187.7,177.2l-5.6,16.7"/>

					<rect x="176.1" y="184" transform="matrix(0.3194 -0.9476 0.9476 0.3194 -49.9518 301.4821)" class="default-st14" width="17.6" height="3"/>
			</g>
			<g id="path4748_1_">
				<path class="default-st24" d="M163.7,170.6l-5.4,16.2"/>

					<rect x="152.5" y="177.2" transform="matrix(0.3145 -0.9493 0.9493 0.3145 -59.2584 275.3886)" class="default-st14" width="17" height="3"/>
			</g>
			<g id="path4750_1_">
				<path class="default-st24" d="M172.6,145.8l-5.4,16.5"/>

					<rect x="161.3" y="152.5" transform="matrix(0.3093 -0.951 0.951 0.3093 -29.11 268.0003)" class="default-st14" width="17.3" height="3"/>
			</g>
			<g id="path4752_1_">
				<path class="default-st24" d="M196,152.4l-5.4,17.3"/>

					<rect x="184.2" y="159.6" transform="matrix(0.2995 -0.9541 0.9541 0.2995 -18.3435 297.2639)" class="default-st14" width="18.2" height="3"/>
			</g>
			<g id="path4754_1_">
				<path class="default-st24" d="M215.6,158.7l-6.1,18.1"/>

					<rect x="203.1" y="166.3" transform="matrix(0.318 -0.9481 0.9481 0.318 -14.0596 315.9792)" class="default-st14" width="19.1" height="3"/>
			</g>
			<g id="path4756_1_">
				<path class="default-st24" d="M179.7,121.7l-4.3,15.4"/>

					<rect x="169.6" y="127.9" transform="matrix(0.2715 -0.9625 0.9625 0.2715 4.81 265.1785)" class="default-st14" width="16" height="3"/>
			</g>
			<g id="path4758_1_">
				<path class="default-st24" d="M203.9,129.4l-5.8,15.6"/>

					<rect x="192.8" y="135.7" transform="matrix(0.3461 -0.9382 0.9382 0.3461 2.8089 278.3341)" class="default-st14" width="16.6" height="3"/>
			</g>
			<g id="path4760_1_">
				<path class="default-st24" d="M222.7,134.7l-6.1,17.2"/>

					<rect x="210.5" y="141.8" transform="matrix(0.333 -0.9429 0.9429 0.333 11.3825 302.751)" class="default-st14" width="18.3" height="3"/>
			</g>
			<g id="path4762_1_">
				<path class="default-st25" d="M138.4,225.1l9.9-32.9l18,6l-12.2,32.5L138.4,225.1z"/>
			</g>
		</g>
	</g>
</g>
</svg>
