<?xml version="1.0" standalone="no"?>
<!DOCTYPE svg PUBLIC "-//W3C//DTD SVG 20010904//EN"
 "http://www.w3.org/TR/2001/REC-SVG-20010904/DTD/svg10.dtd">
<svg version="1.0" xmlns="http://www.w3.org/2000/svg"
 width="709.000000pt" height="709.000000pt" viewBox="0 0 709.000000 709.000000"
 preserveAspectRatio="xMidYMid meet">

<g transform="translate(0.000000,709.000000) scale(0.100000,-0.100000)"
fill="#000000" stroke="none">
<path d="M3530 4819 c-118 -4 -242 -12 -274 -18 -33 -6 -62 -9 -64 -6 -3 3
-10 1 -16 -3 -6 -5 -42 -17 -81 -27 -73 -19 -208 -82 -310 -144 -93 -56 -182
-140 -215 -200 -6 -13 -16 -19 -23 -15 -7 4 -9 4 -5 -1 4 -4 -5 -31 -21 -59
-134 -243 -170 -561 -105 -918 l16 -87 -50 -49 c-32 -31 -54 -63 -61 -88 -14
-50 -14 -267 0 -317 13 -49 71 -113 115 -129 19 -6 34 -16 34 -20 0 -4 16 -8
36 -8 31 0 35 -2 29 -21 -5 -15 -4 -19 4 -15 6 4 11 1 11 -7 0 -8 11 -27 25
-43 14 -16 25 -32 25 -37 0 -15 304 -304 363 -344 79 -54 180 -97 293 -124 75
-18 120 -21 289 -22 214 0 287 9 400 49 39 14 75 26 80 27 6 1 12 4 15 7 3 3
37 28 75 55 39 27 112 89 163 137 50 48 97 88 104 88 6 0 9 3 5 6 -8 8 114
150 126 146 5 -1 6 2 3 7 -4 5 -2 12 4 16 5 3 17 21 26 40 9 20 24 35 33 35
32 0 117 48 149 84 42 48 52 91 52 222 0 139 -16 198 -70 251 l-39 40 14 55
c36 135 55 294 55 443 0 207 -20 316 -85 464 -19 44 -35 83 -35 88 0 5 -9 19
-20 30 -11 12 -28 35 -38 53 -46 75 -214 194 -364 257 -46 19 -90 38 -99 42
-23 13 -153 40 -259 54 -66 8 -161 10 -310 6z m415 -157 c417 -95 626 -320
666 -717 16 -155 -4 -358 -52 -537 l-9 -37 -163 -3 c-155 -3 -165 -4 -200 -28
-41 -28 -87 -108 -87 -152 0 -34 -1 -34 -48 -4 -87 57 -171 37 -239 -57 -20
-29 -38 -54 -40 -56 -2 -3 -10 5 -19 17 -53 75 -122 112 -214 112 -82 0 -140
-26 -197 -86 l-42 -45 -24 38 c-68 105 -153 138 -242 93 -22 -11 -40 -20 -42
-20 -1 0 -5 16 -9 35 -8 46 -57 118 -91 136 -19 9 -80 15 -183 19 l-154 5 -8
35 c-16 76 -38 279 -38 355 1 307 108 560 298 711 123 97 299 167 497 199 137
22 520 14 640 -13z m-1050 -1604 c68 -193 88 -231 154 -290 193 -174 546 -220
818 -106 88 36 184 105 228 164 19 25 55 108 94 217 l63 177 170 0 170 0 29
-29 c29 -29 29 -30 29 -149 0 -106 -2 -122 -21 -146 -19 -24 -26 -26 -96 -26
-84 0 -113 14 -113 57 0 30 34 63 66 63 24 0 25 2 22 53 l-3 52 -68 0 c-64 0
-71 -2 -94 -30 -24 -27 -25 -34 -21 -110 8 -113 38 -165 97 -165 12 0 21 -4
21 -9 0 -19 -126 -167 -240 -281 -127 -128 -200 -176 -320 -214 -190 -60 -487
-60 -670 1 -127 41 -193 86 -332 221 -137 134 -203 212 -213 254 -6 23 -3 27
23 33 16 3 40 17 53 31 20 21 24 38 27 103 3 59 0 86 -13 110 -20 40 -72 63
-128 59 l-42 -3 -3 -52 c-3 -51 -2 -53 22 -53 30 0 66 -32 66 -58 0 -10 -7
-28 -16 -40 -13 -20 -24 -22 -94 -22 -73 0 -80 2 -99 26 -19 24 -21 40 -21
151 0 118 1 125 25 148 24 25 27 25 198 25 l174 0 58 -162z m312 -48 c42 -68
49 -107 29 -153 -13 -32 -19 -37 -48 -37 -35 0 -70 20 -100 55 -26 30 -72 151
-64 170 3 9 25 24 48 35 41 18 44 18 73 2 16 -10 45 -42 62 -72z m786 76 c70
-32 71 -35 41 -112 -34 -85 -57 -120 -94 -139 -65 -34 -101 -16 -108 53 -6 63
22 125 79 176 45 42 40 40 82 22z m-371 -28 c44 -31 58 -68 58 -153 l0 -76
-42 -19 c-26 -12 -65 -20 -98 -20 -33 0 -72 8 -97 20 l-43 19 0 85 c0 81 2 87
31 121 51 57 130 67 191 23z"/>
<path d="M3028 4196 c-48 -17 -113 -66 -144 -107 -87 -118 -97 -353 -20 -470
67 -100 209 -87 373 34 130 96 170 207 123 340 -33 93 -86 168 -140 195 -51
25 -133 29 -192 8z"/>
<path d="M3865 4192 c-78 -37 -165 -198 -165 -307 0 -100 98 -218 239 -288 71
-35 94 -42 145 -42 78 0 115 25 153 103 26 53 28 65 27 177 0 137 -12 179 -73
259 -53 71 -123 108 -215 113 -55 3 -80 -1 -111 -15z"/>
<path d="M3480 3770 c-78 -84 -130 -217 -130 -330 0 -113 25 -127 132 -74 60
30 65 30 141 -6 100 -47 117 -39 117 54 0 111 -52 246 -133 348 -49 62 -76 64
-127 8z"/>
</g>
</svg>
